M48
; DRILL file {KiCad (5.1.7)-1} date 08/01/21 15:47:54
; FORMAT={-:-/ absolute / metric / decimal}
; #@! TF.CreationDate,2021-08-01T15:47:54-03:00
; #@! TF.GenerationSoftware,Kicad,Pcbnew,(5.1.7)-1
; #@! TF.FileFunction,Plated,1,2,PTH
FMAT,2
METRIC
T1C0.700
T2C0.750
T3C0.800
T4C0.900
T5C1.000
T6C1.100
T7C1.300
T8C1.500
%
G90
G05
T1
X149.352Y-73.66
X156.972Y-73.66
X149.86Y-79.248
X157.48Y-79.248
X150.876Y-86.868
X158.496Y-86.868
X149.352Y-70.104
X156.972Y-70.104
X135.636Y-62.992
X143.256Y-62.992
T2
X163.83Y-71.882
X165.1Y-70.612
X165.1Y-73.152
T3
X119.38Y-96.012
X123.952Y-92.456
X131.572Y-96.012
X132.08Y-92.456
X150.876Y-83.312
X158.496Y-83.312
X127.508Y-69.128
X127.508Y-71.628
X123.992Y-77.724
X126.492Y-77.724
X135.636Y-69.088
X135.636Y-71.628
X135.636Y-74.168
X135.636Y-76.708
X135.636Y-79.248
X135.636Y-81.788
X135.636Y-84.328
X135.636Y-86.868
X135.636Y-89.408
X143.256Y-69.088
X143.256Y-71.628
X143.256Y-74.168
X143.256Y-76.708
X143.256Y-79.248
X143.256Y-81.788
X143.256Y-84.328
X143.256Y-86.868
X143.256Y-89.408
X122.428Y-69.128
X122.428Y-71.628
T4
X171.704Y-101.092
X174.244Y-101.092
T5
X166.542Y-79.902
X166.542Y-91.902
X149.372Y-58.928
X156.972Y-58.928
X129.032Y-100.076
X131.572Y-100.076
X134.112Y-100.076
X136.652Y-100.076
X139.192Y-100.076
X141.732Y-100.076
X144.272Y-100.076
T6
X152.908Y-99.06
X152.908Y-103.56
X159.408Y-99.06
X159.408Y-103.56
T7
X164.592Y-85.852
X178.742Y-91.902
X178.792Y-79.852
T8
X124.54Y-58.928
X129.54Y-58.928
X171.356Y-59.436
X176.356Y-59.436
X181.356Y-59.436
T0
M30
