%TF.GenerationSoftware,KiCad,Pcbnew,(5.1.7)-1*%
%TF.CreationDate,2021-08-01T15:47:44-03:00*%
%TF.ProjectId,cerradura digital,63657272-6164-4757-9261-206469676974,rev?*%
%TF.SameCoordinates,Original*%
%TF.FileFunction,Copper,L1,Top*%
%TF.FilePolarity,Positive*%
%FSLAX46Y46*%
G04 Gerber Fmt 4.6, Leading zero omitted, Abs format (unit mm)*
G04 Created by KiCad (PCBNEW (5.1.7)-1) date 2021-08-01 15:47:44*
%MOMM*%
%LPD*%
G01*
G04 APERTURE LIST*
%TA.AperFunction,ComponentPad*%
%ADD10O,1.700000X1.700000*%
%TD*%
%TA.AperFunction,ComponentPad*%
%ADD11R,1.700000X1.700000*%
%TD*%
%TA.AperFunction,ComponentPad*%
%ADD12O,2.400000X1.600000*%
%TD*%
%TA.AperFunction,ComponentPad*%
%ADD13R,2.400000X1.600000*%
%TD*%
%TA.AperFunction,ComponentPad*%
%ADD14C,2.000000*%
%TD*%
%TA.AperFunction,ComponentPad*%
%ADD15O,1.400000X1.400000*%
%TD*%
%TA.AperFunction,ComponentPad*%
%ADD16C,1.400000*%
%TD*%
%TA.AperFunction,ComponentPad*%
%ADD17R,1.800000X1.100000*%
%TD*%
%TA.AperFunction,ComponentPad*%
%ADD18C,3.000000*%
%TD*%
%TA.AperFunction,ComponentPad*%
%ADD19C,2.500000*%
%TD*%
%TA.AperFunction,ComponentPad*%
%ADD20R,3.000000X3.000000*%
%TD*%
%TA.AperFunction,ComponentPad*%
%ADD21O,1.600000X1.600000*%
%TD*%
%TA.AperFunction,ComponentPad*%
%ADD22R,1.600000X1.600000*%
%TD*%
%TA.AperFunction,ComponentPad*%
%ADD23C,1.800000*%
%TD*%
%TA.AperFunction,ComponentPad*%
%ADD24R,1.800000X1.800000*%
%TD*%
%TA.AperFunction,ComponentPad*%
%ADD25C,1.600000*%
%TD*%
%TA.AperFunction,ComponentPad*%
%ADD26R,2.000000X2.000000*%
%TD*%
%TA.AperFunction,ViaPad*%
%ADD27C,2.000000*%
%TD*%
%TA.AperFunction,Conductor*%
%ADD28C,1.000000*%
%TD*%
G04 APERTURE END LIST*
D10*
%TO.P,K1,7*%
%TO.N,Net-(K1-Pad7)*%
X129032000Y-100076000D03*
%TO.P,K1,6*%
%TO.N,GND*%
X131572000Y-100076000D03*
%TO.P,K1,5*%
%TO.N,Net-(K1-Pad5)*%
X134112000Y-100076000D03*
%TO.P,K1,4*%
%TO.N,Net-(K1-Pad4)*%
X136652000Y-100076000D03*
%TO.P,K1,3*%
%TO.N,Net-(K1-Pad3)*%
X139192000Y-100076000D03*
%TO.P,K1,2*%
%TO.N,Net-(K1-Pad2)*%
X141732000Y-100076000D03*
D11*
%TO.P,K1,1*%
%TO.N,Net-(K1-Pad1)*%
X144272000Y-100076000D03*
%TD*%
D12*
%TO.P,U1,18*%
%TO.N,Net-(R1-Pad2)*%
X143256000Y-69088000D03*
%TO.P,U1,9*%
%TO.N,+5V*%
X135636000Y-89408000D03*
%TO.P,U1,17*%
%TO.N,Net-(R4-Pad2)*%
X143256000Y-71628000D03*
%TO.P,U1,8*%
%TO.N,Net-(K1-Pad7)*%
X135636000Y-86868000D03*
%TO.P,U1,16*%
%TO.N,Net-(U1-Pad16)*%
X143256000Y-74168000D03*
%TO.P,U1,7*%
%TO.N,Net-(K1-Pad4)*%
X135636000Y-84328000D03*
%TO.P,U1,15*%
%TO.N,Net-(U1-Pad15)*%
X143256000Y-76708000D03*
%TO.P,U1,6*%
%TO.N,Net-(K1-Pad5)*%
X135636000Y-81788000D03*
%TO.P,U1,14*%
%TO.N,Net-(BZ1-Pad2)*%
X143256000Y-79248000D03*
%TO.P,U1,5*%
%TO.N,Net-(K1-Pad2)*%
X135636000Y-79248000D03*
%TO.P,U1,13*%
%TO.N,Net-(SW1-Pad1)*%
X143256000Y-81788000D03*
%TO.P,U1,4*%
%TO.N,Net-(C2-Pad1)*%
X135636000Y-76708000D03*
%TO.P,U1,12*%
%TO.N,sensor*%
X143256000Y-84328000D03*
%TO.P,U1,3*%
%TO.N,GND*%
X135636000Y-74168000D03*
%TO.P,U1,11*%
%TO.N,Net-(K1-Pad1)*%
X143256000Y-86868000D03*
%TO.P,U1,2*%
%TO.N,GND*%
X135636000Y-71628000D03*
%TO.P,U1,10*%
%TO.N,Net-(K1-Pad3)*%
X143256000Y-89408000D03*
D13*
%TO.P,U1,1*%
%TO.N,Net-(C1-Pad2)*%
X135636000Y-69088000D03*
%TD*%
D14*
%TO.P,SW1,1*%
%TO.N,Net-(SW1-Pad1)*%
X159408000Y-99060000D03*
%TO.P,SW1,2*%
%TO.N,GND*%
X159408000Y-103560000D03*
%TO.P,SW1,1*%
%TO.N,Net-(SW1-Pad1)*%
X152908000Y-99060000D03*
%TO.P,SW1,2*%
%TO.N,GND*%
X152908000Y-103560000D03*
%TD*%
D15*
%TO.P,R5,2*%
%TO.N,Net-(R4-Pad2)*%
X149352000Y-73660000D03*
D16*
%TO.P,R5,1*%
%TO.N,Net-(Q1-Pad2)*%
X156972000Y-73660000D03*
%TD*%
D15*
%TO.P,R4,2*%
%TO.N,Net-(R4-Pad2)*%
X149352000Y-70104000D03*
D16*
%TO.P,R4,1*%
%TO.N,+5V*%
X156972000Y-70104000D03*
%TD*%
D15*
%TO.P,R3,2*%
%TO.N,Net-(D1-Pad2)*%
X158496000Y-86868000D03*
D16*
%TO.P,R3,1*%
%TO.N,Net-(D2-Pad1)*%
X150876000Y-86868000D03*
%TD*%
D15*
%TO.P,R2,2*%
%TO.N,Net-(BZ1-Pad2)*%
X149860000Y-79248000D03*
D16*
%TO.P,R2,1*%
%TO.N,+5V*%
X157480000Y-79248000D03*
%TD*%
D15*
%TO.P,R1,2*%
%TO.N,Net-(R1-Pad2)*%
X143256000Y-62992000D03*
D16*
%TO.P,R1,1*%
%TO.N,Net-(C1-Pad2)*%
X135636000Y-62992000D03*
%TD*%
D17*
%TO.P,Q1,1*%
%TO.N,Net-(D2-Pad1)*%
X165500000Y-73152000D03*
%TO.P,Q1,3*%
%TO.N,+5V*%
%TA.AperFunction,ComponentPad*%
G36*
G01*
X166125000Y-71162000D02*
X164875000Y-71162000D01*
G75*
G02*
X164600000Y-70887000I0J275000D01*
G01*
X164600000Y-70337000D01*
G75*
G02*
X164875000Y-70062000I275000J0D01*
G01*
X166125000Y-70062000D01*
G75*
G02*
X166400000Y-70337000I0J-275000D01*
G01*
X166400000Y-70887000D01*
G75*
G02*
X166125000Y-71162000I-275000J0D01*
G01*
G37*
%TD.AperFunction*%
%TO.P,Q1,2*%
%TO.N,Net-(Q1-Pad2)*%
%TA.AperFunction,ComponentPad*%
G36*
G01*
X164055000Y-72432000D02*
X162805000Y-72432000D01*
G75*
G02*
X162530000Y-72157000I0J275000D01*
G01*
X162530000Y-71607000D01*
G75*
G02*
X162805000Y-71332000I275000J0D01*
G01*
X164055000Y-71332000D01*
G75*
G02*
X164330000Y-71607000I0J-275000D01*
G01*
X164330000Y-72157000D01*
G75*
G02*
X164055000Y-72432000I-275000J0D01*
G01*
G37*
%TD.AperFunction*%
%TD*%
D18*
%TO.P,K2,1*%
%TO.N,CC*%
X164592000Y-85852000D03*
D19*
%TO.P,K2,5*%
%TO.N,Net-(D2-Pad1)*%
X166542000Y-79902000D03*
D18*
%TO.P,K2,4*%
%TO.N,NC*%
X178792000Y-79852000D03*
%TO.P,K2,3*%
%TO.N,NO*%
X178742000Y-91902000D03*
D19*
%TO.P,K2,2*%
%TO.N,GND*%
X166542000Y-91902000D03*
%TD*%
D18*
%TO.P,J2,3*%
%TO.N,CC*%
X171356000Y-59436000D03*
%TO.P,J2,2*%
%TO.N,NO*%
X176356000Y-59436000D03*
D20*
%TO.P,J2,1*%
%TO.N,NC*%
X181356000Y-59436000D03*
%TD*%
D18*
%TO.P,J1,2*%
%TO.N,GND*%
X124540000Y-58928000D03*
D20*
%TO.P,J1,1*%
%TO.N,+5V*%
X129540000Y-58928000D03*
%TD*%
D21*
%TO.P,D2,2*%
%TO.N,GND*%
X158496000Y-83312000D03*
D22*
%TO.P,D2,1*%
%TO.N,Net-(D2-Pad1)*%
X150876000Y-83312000D03*
%TD*%
D23*
%TO.P,D1,2*%
%TO.N,Net-(D1-Pad2)*%
X171704000Y-101092000D03*
D24*
%TO.P,D1,1*%
%TO.N,GND*%
X174244000Y-101092000D03*
%TD*%
D25*
%TO.P,C3,2*%
%TO.N,Net-(C1-Pad2)*%
X127508000Y-69128000D03*
%TO.P,C3,1*%
%TO.N,GND*%
X127508000Y-71628000D03*
%TD*%
%TO.P,C2,2*%
%TO.N,GND*%
X123992000Y-77724000D03*
D22*
%TO.P,C2,1*%
%TO.N,Net-(C2-Pad1)*%
X126492000Y-77724000D03*
%TD*%
D25*
%TO.P,C1,2*%
%TO.N,Net-(C1-Pad2)*%
X122428000Y-69128000D03*
%TO.P,C1,1*%
%TO.N,GND*%
X122428000Y-71628000D03*
%TD*%
D14*
%TO.P,BZ1,2*%
%TO.N,Net-(BZ1-Pad2)*%
X149372000Y-58928000D03*
D26*
%TO.P,BZ1,1*%
%TO.N,+5V*%
X156972000Y-58928000D03*
%TD*%
D27*
%TO.N,GND*%
X131572000Y-96012000D03*
X119380000Y-96012000D03*
%TO.N,Net-(K1-Pad5)*%
X132080000Y-92456000D03*
X123952000Y-92456000D03*
%TD*%
D28*
%TO.N,GND*%
X131572000Y-96012000D02*
X119380000Y-96012000D01*
%TO.N,Net-(K1-Pad5)*%
X132080000Y-92456000D02*
X123952000Y-92456000D01*
%TD*%
M02*
