%TF.GenerationSoftware,KiCad,Pcbnew,(5.1.7)-1*%
%TF.CreationDate,2021-08-01T15:47:44-03:00*%
%TF.ProjectId,cerradura digital,63657272-6164-4757-9261-206469676974,rev?*%
%TF.SameCoordinates,Original*%
%TF.FileFunction,Soldermask,Bot*%
%TF.FilePolarity,Negative*%
%FSLAX46Y46*%
G04 Gerber Fmt 4.6, Leading zero omitted, Abs format (unit mm)*
G04 Created by KiCad (PCBNEW (5.1.7)-1) date 2021-08-01 15:47:44*
%MOMM*%
%LPD*%
G01*
G04 APERTURE LIST*
%ADD10O,1.700000X1.700000*%
%ADD11R,1.700000X1.700000*%
%ADD12O,2.400000X1.600000*%
%ADD13R,2.400000X1.600000*%
%ADD14C,2.000000*%
%ADD15O,1.400000X1.400000*%
%ADD16C,1.400000*%
%ADD17R,1.800000X1.100000*%
%ADD18C,3.000000*%
%ADD19C,2.500000*%
%ADD20R,3.000000X3.000000*%
%ADD21O,1.600000X1.600000*%
%ADD22R,1.600000X1.600000*%
%ADD23C,1.800000*%
%ADD24R,1.800000X1.800000*%
%ADD25C,1.600000*%
%ADD26R,2.000000X2.000000*%
G04 APERTURE END LIST*
D10*
%TO.C,K1*%
X129032000Y-100076000D03*
X131572000Y-100076000D03*
X134112000Y-100076000D03*
X136652000Y-100076000D03*
X139192000Y-100076000D03*
X141732000Y-100076000D03*
D11*
X144272000Y-100076000D03*
%TD*%
D12*
%TO.C,U1*%
X143256000Y-69088000D03*
X135636000Y-89408000D03*
X143256000Y-71628000D03*
X135636000Y-86868000D03*
X143256000Y-74168000D03*
X135636000Y-84328000D03*
X143256000Y-76708000D03*
X135636000Y-81788000D03*
X143256000Y-79248000D03*
X135636000Y-79248000D03*
X143256000Y-81788000D03*
X135636000Y-76708000D03*
X143256000Y-84328000D03*
X135636000Y-74168000D03*
X143256000Y-86868000D03*
X135636000Y-71628000D03*
X143256000Y-89408000D03*
D13*
X135636000Y-69088000D03*
%TD*%
D14*
%TO.C,SW1*%
X159408000Y-99060000D03*
X159408000Y-103560000D03*
X152908000Y-99060000D03*
X152908000Y-103560000D03*
%TD*%
D15*
%TO.C,R5*%
X149352000Y-73660000D03*
D16*
X156972000Y-73660000D03*
%TD*%
D15*
%TO.C,R4*%
X149352000Y-70104000D03*
D16*
X156972000Y-70104000D03*
%TD*%
D15*
%TO.C,R3*%
X158496000Y-86868000D03*
D16*
X150876000Y-86868000D03*
%TD*%
D15*
%TO.C,R2*%
X149860000Y-79248000D03*
D16*
X157480000Y-79248000D03*
%TD*%
D15*
%TO.C,R1*%
X143256000Y-62992000D03*
D16*
X135636000Y-62992000D03*
%TD*%
D17*
%TO.C,Q1*%
X165500000Y-73152000D03*
G36*
G01*
X166125000Y-71162000D02*
X164875000Y-71162000D01*
G75*
G02*
X164600000Y-70887000I0J275000D01*
G01*
X164600000Y-70337000D01*
G75*
G02*
X164875000Y-70062000I275000J0D01*
G01*
X166125000Y-70062000D01*
G75*
G02*
X166400000Y-70337000I0J-275000D01*
G01*
X166400000Y-70887000D01*
G75*
G02*
X166125000Y-71162000I-275000J0D01*
G01*
G37*
G36*
G01*
X164055000Y-72432000D02*
X162805000Y-72432000D01*
G75*
G02*
X162530000Y-72157000I0J275000D01*
G01*
X162530000Y-71607000D01*
G75*
G02*
X162805000Y-71332000I275000J0D01*
G01*
X164055000Y-71332000D01*
G75*
G02*
X164330000Y-71607000I0J-275000D01*
G01*
X164330000Y-72157000D01*
G75*
G02*
X164055000Y-72432000I-275000J0D01*
G01*
G37*
%TD*%
D18*
%TO.C,K2*%
X164592000Y-85852000D03*
D19*
X166542000Y-79902000D03*
D18*
X178792000Y-79852000D03*
X178742000Y-91902000D03*
D19*
X166542000Y-91902000D03*
%TD*%
D18*
%TO.C,J2*%
X171356000Y-59436000D03*
X176356000Y-59436000D03*
D20*
X181356000Y-59436000D03*
%TD*%
D18*
%TO.C,J1*%
X124540000Y-58928000D03*
D20*
X129540000Y-58928000D03*
%TD*%
D21*
%TO.C,D2*%
X158496000Y-83312000D03*
D22*
X150876000Y-83312000D03*
%TD*%
D23*
%TO.C,D1*%
X171704000Y-101092000D03*
D24*
X174244000Y-101092000D03*
%TD*%
D25*
%TO.C,C3*%
X127508000Y-69128000D03*
X127508000Y-71628000D03*
%TD*%
%TO.C,C2*%
X123992000Y-77724000D03*
D22*
X126492000Y-77724000D03*
%TD*%
D25*
%TO.C,C1*%
X122428000Y-69128000D03*
X122428000Y-71628000D03*
%TD*%
D14*
%TO.C,BZ1*%
X149372000Y-58928000D03*
D26*
X156972000Y-58928000D03*
%TD*%
M02*
