%TF.GenerationSoftware,KiCad,Pcbnew,(5.1.7)-1*%
%TF.CreationDate,2021-08-01T15:47:44-03:00*%
%TF.ProjectId,cerradura digital,63657272-6164-4757-9261-206469676974,rev?*%
%TF.SameCoordinates,Original*%
%TF.FileFunction,Legend,Top*%
%TF.FilePolarity,Positive*%
%FSLAX46Y46*%
G04 Gerber Fmt 4.6, Leading zero omitted, Abs format (unit mm)*
G04 Created by KiCad (PCBNEW (5.1.7)-1) date 2021-08-01 15:47:44*
%MOMM*%
%LPD*%
G01*
G04 APERTURE LIST*
%ADD10C,0.300000*%
%ADD11C,0.120000*%
%ADD12C,0.150000*%
G04 APERTURE END LIST*
D10*
X119066571Y-58975428D02*
X119066571Y-59689714D01*
X119780857Y-59761142D01*
X119709428Y-59689714D01*
X119638000Y-59546857D01*
X119638000Y-59189714D01*
X119709428Y-59046857D01*
X119780857Y-58975428D01*
X119923714Y-58904000D01*
X120280857Y-58904000D01*
X120423714Y-58975428D01*
X120495142Y-59046857D01*
X120566571Y-59189714D01*
X120566571Y-59546857D01*
X120495142Y-59689714D01*
X120423714Y-59761142D01*
X119066571Y-58475428D02*
X120566571Y-57975428D01*
X119066571Y-57475428D01*
X120495142Y-56332571D02*
X120566571Y-56475428D01*
X120566571Y-56761142D01*
X120495142Y-56904000D01*
X120423714Y-56975428D01*
X120280857Y-57046857D01*
X119852285Y-57046857D01*
X119709428Y-56975428D01*
X119638000Y-56904000D01*
X119566571Y-56761142D01*
X119566571Y-56475428D01*
X119638000Y-56332571D01*
X120495142Y-55046857D02*
X120566571Y-55189714D01*
X120566571Y-55475428D01*
X120495142Y-55618285D01*
X120423714Y-55689714D01*
X120280857Y-55761142D01*
X119852285Y-55761142D01*
X119709428Y-55689714D01*
X119638000Y-55618285D01*
X119566571Y-55475428D01*
X119566571Y-55189714D01*
X119638000Y-55046857D01*
X128968571Y-50399142D02*
X130111428Y-50399142D01*
X129540000Y-50970571D02*
X129540000Y-49827714D01*
X123888571Y-50399142D02*
X125031428Y-50399142D01*
X180177428Y-51478571D02*
X180177428Y-49978571D01*
X181034571Y-51478571D01*
X181034571Y-49978571D01*
X182606000Y-51335714D02*
X182534571Y-51407142D01*
X182320285Y-51478571D01*
X182177428Y-51478571D01*
X181963142Y-51407142D01*
X181820285Y-51264285D01*
X181748857Y-51121428D01*
X181677428Y-50835714D01*
X181677428Y-50621428D01*
X181748857Y-50335714D01*
X181820285Y-50192857D01*
X181963142Y-50050000D01*
X182177428Y-49978571D01*
X182320285Y-49978571D01*
X182534571Y-50050000D01*
X182606000Y-50121428D01*
X175061714Y-51478571D02*
X175061714Y-49978571D01*
X175918857Y-51478571D01*
X175918857Y-49978571D01*
X176918857Y-49978571D02*
X177204571Y-49978571D01*
X177347428Y-50050000D01*
X177490285Y-50192857D01*
X177561714Y-50478571D01*
X177561714Y-50978571D01*
X177490285Y-51264285D01*
X177347428Y-51407142D01*
X177204571Y-51478571D01*
X176918857Y-51478571D01*
X176776000Y-51407142D01*
X176633142Y-51264285D01*
X176561714Y-50978571D01*
X176561714Y-50478571D01*
X176633142Y-50192857D01*
X176776000Y-50050000D01*
X176918857Y-49978571D01*
X170910285Y-51335714D02*
X170838857Y-51407142D01*
X170624571Y-51478571D01*
X170481714Y-51478571D01*
X170267428Y-51407142D01*
X170124571Y-51264285D01*
X170053142Y-51121428D01*
X169981714Y-50835714D01*
X169981714Y-50621428D01*
X170053142Y-50335714D01*
X170124571Y-50192857D01*
X170267428Y-50050000D01*
X170481714Y-49978571D01*
X170624571Y-49978571D01*
X170838857Y-50050000D01*
X170910285Y-50121428D01*
X172410285Y-51335714D02*
X172338857Y-51407142D01*
X172124571Y-51478571D01*
X171981714Y-51478571D01*
X171767428Y-51407142D01*
X171624571Y-51264285D01*
X171553142Y-51121428D01*
X171481714Y-50835714D01*
X171481714Y-50621428D01*
X171553142Y-50335714D01*
X171624571Y-50192857D01*
X171767428Y-50050000D01*
X171981714Y-49978571D01*
X172124571Y-49978571D01*
X172338857Y-50050000D01*
X172410285Y-50121428D01*
D11*
%TO.C,K1*%
X127702000Y-98746000D02*
X127702000Y-101406000D01*
X143002000Y-98746000D02*
X127702000Y-98746000D01*
X143002000Y-101406000D02*
X127702000Y-101406000D01*
X143002000Y-98746000D02*
X143002000Y-101406000D01*
X144272000Y-98746000D02*
X145602000Y-98746000D01*
X145602000Y-98746000D02*
X145602000Y-100076000D01*
%TO.C,U1*%
X140446000Y-67758000D02*
G75*
G02*
X138446000Y-67758000I-1000000J0D01*
G01*
X138446000Y-67758000D02*
X137196000Y-67758000D01*
X137196000Y-67758000D02*
X137196000Y-90738000D01*
X137196000Y-90738000D02*
X141696000Y-90738000D01*
X141696000Y-90738000D02*
X141696000Y-67758000D01*
X141696000Y-67758000D02*
X140446000Y-67758000D01*
%TO.C,SW1*%
X153908000Y-104560000D02*
X158408000Y-104560000D01*
X152658000Y-100560000D02*
X152658000Y-102060000D01*
X158408000Y-98060000D02*
X153908000Y-98060000D01*
X159658000Y-102060000D02*
X159658000Y-100560000D01*
%TO.C,R5*%
X155082000Y-74580000D02*
X155082000Y-72740000D01*
X155082000Y-72740000D02*
X151242000Y-72740000D01*
X151242000Y-72740000D02*
X151242000Y-74580000D01*
X151242000Y-74580000D02*
X155082000Y-74580000D01*
X156032000Y-73660000D02*
X155082000Y-73660000D01*
X150292000Y-73660000D02*
X151242000Y-73660000D01*
%TO.C,R4*%
X155082000Y-71024000D02*
X155082000Y-69184000D01*
X155082000Y-69184000D02*
X151242000Y-69184000D01*
X151242000Y-69184000D02*
X151242000Y-71024000D01*
X151242000Y-71024000D02*
X155082000Y-71024000D01*
X156032000Y-70104000D02*
X155082000Y-70104000D01*
X150292000Y-70104000D02*
X151242000Y-70104000D01*
%TO.C,R3*%
X152766000Y-85948000D02*
X152766000Y-87788000D01*
X152766000Y-87788000D02*
X156606000Y-87788000D01*
X156606000Y-87788000D02*
X156606000Y-85948000D01*
X156606000Y-85948000D02*
X152766000Y-85948000D01*
X151816000Y-86868000D02*
X152766000Y-86868000D01*
X157556000Y-86868000D02*
X156606000Y-86868000D01*
%TO.C,R2*%
X155590000Y-80168000D02*
X155590000Y-78328000D01*
X155590000Y-78328000D02*
X151750000Y-78328000D01*
X151750000Y-78328000D02*
X151750000Y-80168000D01*
X151750000Y-80168000D02*
X155590000Y-80168000D01*
X156540000Y-79248000D02*
X155590000Y-79248000D01*
X150800000Y-79248000D02*
X151750000Y-79248000D01*
%TO.C,R1*%
X137526000Y-62072000D02*
X137526000Y-63912000D01*
X137526000Y-63912000D02*
X141366000Y-63912000D01*
X141366000Y-63912000D02*
X141366000Y-62072000D01*
X141366000Y-62072000D02*
X137526000Y-62072000D01*
X136576000Y-62992000D02*
X137526000Y-62992000D01*
X142316000Y-62992000D02*
X141366000Y-62992000D01*
%TO.C,Q1*%
X166927684Y-70073555D02*
G75*
G03*
X162650000Y-71102000I-1827684J-1808445D01*
G01*
X166941741Y-73693875D02*
G75*
G02*
X162650000Y-72702000I-1841741J1811875D01*
G01*
X166950000Y-73682000D02*
X166950000Y-70082000D01*
%TO.C,K2*%
X163192000Y-87052000D02*
X163192000Y-93652000D01*
X163192000Y-78052000D02*
X163192000Y-84652000D01*
X163192000Y-78052000D02*
X182992000Y-78052000D01*
X182992000Y-78052000D02*
X182992000Y-93652000D01*
X182992000Y-93652000D02*
X163192000Y-93652000D01*
X178742000Y-90052000D02*
X178742000Y-87602000D01*
X178742000Y-81652000D02*
X178742000Y-84152000D01*
X168142000Y-91902000D02*
X170642000Y-91902000D01*
X167242000Y-85902000D02*
X166442000Y-85902000D01*
X170642000Y-79902000D02*
X168142000Y-79902000D01*
X174042000Y-85902000D02*
X175542000Y-85902000D01*
X175542000Y-85902000D02*
X180142000Y-83402000D01*
X174042000Y-89502000D02*
X167242000Y-89502000D01*
X174042000Y-85902000D02*
X174042000Y-89502000D01*
X167242000Y-85902000D02*
X167242000Y-89502000D01*
X170642000Y-79902000D02*
X170642000Y-84102000D01*
X170642000Y-87702000D02*
X170642000Y-91902000D01*
X172642000Y-87702000D02*
X168642000Y-84102000D01*
X168642000Y-87702000D02*
X168642000Y-84102000D01*
X168642000Y-84102000D02*
X172642000Y-84102000D01*
X172642000Y-84102000D02*
X172642000Y-87702000D01*
X172642000Y-87702000D02*
X168642000Y-87702000D01*
%TO.C,J2*%
X184356000Y-62936000D02*
X184356000Y-65936000D01*
X184356000Y-65936000D02*
X181356000Y-65936000D01*
X183976000Y-65556000D02*
X168736000Y-65556000D01*
X168736000Y-65556000D02*
X168736000Y-52816000D01*
X183976000Y-52816000D02*
X168736000Y-52816000D01*
X183976000Y-65556000D02*
X183976000Y-52816000D01*
X183976000Y-65556000D02*
X168736000Y-65556000D01*
X168736000Y-65556000D02*
X168736000Y-52816000D01*
X183976000Y-52816000D02*
X168736000Y-52816000D01*
X183976000Y-65556000D02*
X183976000Y-52816000D01*
%TO.C,J1*%
X132540000Y-62428000D02*
X132540000Y-65428000D01*
X132540000Y-65428000D02*
X129540000Y-65428000D01*
X132160000Y-65048000D02*
X121920000Y-65048000D01*
X121920000Y-65048000D02*
X121920000Y-52308000D01*
X132160000Y-52308000D02*
X121920000Y-52308000D01*
X132160000Y-65048000D02*
X132160000Y-52308000D01*
X132160000Y-65048000D02*
X121920000Y-65048000D01*
X121920000Y-65048000D02*
X121920000Y-52308000D01*
X132160000Y-52308000D02*
X121920000Y-52308000D01*
X132160000Y-65048000D02*
X132160000Y-52308000D01*
%TO.C,D2*%
X152566000Y-82192000D02*
X152566000Y-84432000D01*
X152566000Y-84432000D02*
X156806000Y-84432000D01*
X156806000Y-84432000D02*
X156806000Y-82192000D01*
X156806000Y-82192000D02*
X152566000Y-82192000D01*
X151916000Y-83312000D02*
X152566000Y-83312000D01*
X157456000Y-83312000D02*
X156806000Y-83312000D01*
X153286000Y-82192000D02*
X153286000Y-84432000D01*
X153406000Y-82192000D02*
X153406000Y-84432000D01*
X153166000Y-82192000D02*
X153166000Y-84432000D01*
%TO.C,D1*%
X169984000Y-101092462D02*
G75*
G02*
X175534000Y-99547170I2990000J462D01*
G01*
X169984000Y-101091538D02*
G75*
G03*
X175534000Y-102636830I2990000J-462D01*
G01*
X175474000Y-101092000D02*
G75*
G03*
X175474000Y-101092000I-2500000J0D01*
G01*
X175534000Y-102637000D02*
X175534000Y-99547000D01*
%TO.C,C3*%
X126388000Y-71998000D02*
X126388000Y-68758000D01*
X128628000Y-71998000D02*
X128628000Y-68758000D01*
X126388000Y-71998000D02*
X126453000Y-71998000D01*
X128563000Y-71998000D02*
X128628000Y-71998000D01*
X126388000Y-68758000D02*
X126453000Y-68758000D01*
X128563000Y-68758000D02*
X128628000Y-68758000D01*
%TO.C,C2*%
X127862000Y-77724000D02*
G75*
G03*
X127862000Y-77724000I-2620000J0D01*
G01*
X125242000Y-80304000D02*
X125242000Y-75144000D01*
X125202000Y-80304000D02*
X125202000Y-75144000D01*
X125162000Y-80303000D02*
X125162000Y-75145000D01*
X125122000Y-80302000D02*
X125122000Y-75146000D01*
X125082000Y-80300000D02*
X125082000Y-75148000D01*
X125042000Y-80297000D02*
X125042000Y-75151000D01*
X125002000Y-80293000D02*
X125002000Y-78764000D01*
X125002000Y-76684000D02*
X125002000Y-75155000D01*
X124962000Y-80289000D02*
X124962000Y-78764000D01*
X124962000Y-76684000D02*
X124962000Y-75159000D01*
X124922000Y-80285000D02*
X124922000Y-78764000D01*
X124922000Y-76684000D02*
X124922000Y-75163000D01*
X124882000Y-80280000D02*
X124882000Y-78764000D01*
X124882000Y-76684000D02*
X124882000Y-75168000D01*
X124842000Y-80274000D02*
X124842000Y-78764000D01*
X124842000Y-76684000D02*
X124842000Y-75174000D01*
X124802000Y-80267000D02*
X124802000Y-78764000D01*
X124802000Y-76684000D02*
X124802000Y-75181000D01*
X124762000Y-80260000D02*
X124762000Y-78764000D01*
X124762000Y-76684000D02*
X124762000Y-75188000D01*
X124722000Y-80252000D02*
X124722000Y-78764000D01*
X124722000Y-76684000D02*
X124722000Y-75196000D01*
X124682000Y-80244000D02*
X124682000Y-78764000D01*
X124682000Y-76684000D02*
X124682000Y-75204000D01*
X124642000Y-80235000D02*
X124642000Y-78764000D01*
X124642000Y-76684000D02*
X124642000Y-75213000D01*
X124602000Y-80225000D02*
X124602000Y-78764000D01*
X124602000Y-76684000D02*
X124602000Y-75223000D01*
X124562000Y-80215000D02*
X124562000Y-78764000D01*
X124562000Y-76684000D02*
X124562000Y-75233000D01*
X124521000Y-80204000D02*
X124521000Y-78764000D01*
X124521000Y-76684000D02*
X124521000Y-75244000D01*
X124481000Y-80192000D02*
X124481000Y-78764000D01*
X124481000Y-76684000D02*
X124481000Y-75256000D01*
X124441000Y-80179000D02*
X124441000Y-78764000D01*
X124441000Y-76684000D02*
X124441000Y-75269000D01*
X124401000Y-80166000D02*
X124401000Y-78764000D01*
X124401000Y-76684000D02*
X124401000Y-75282000D01*
X124361000Y-80152000D02*
X124361000Y-78764000D01*
X124361000Y-76684000D02*
X124361000Y-75296000D01*
X124321000Y-80138000D02*
X124321000Y-78764000D01*
X124321000Y-76684000D02*
X124321000Y-75310000D01*
X124281000Y-80122000D02*
X124281000Y-78764000D01*
X124281000Y-76684000D02*
X124281000Y-75326000D01*
X124241000Y-80106000D02*
X124241000Y-78764000D01*
X124241000Y-76684000D02*
X124241000Y-75342000D01*
X124201000Y-80089000D02*
X124201000Y-78764000D01*
X124201000Y-76684000D02*
X124201000Y-75359000D01*
X124161000Y-80072000D02*
X124161000Y-78764000D01*
X124161000Y-76684000D02*
X124161000Y-75376000D01*
X124121000Y-80053000D02*
X124121000Y-78764000D01*
X124121000Y-76684000D02*
X124121000Y-75395000D01*
X124081000Y-80034000D02*
X124081000Y-78764000D01*
X124081000Y-76684000D02*
X124081000Y-75414000D01*
X124041000Y-80014000D02*
X124041000Y-78764000D01*
X124041000Y-76684000D02*
X124041000Y-75434000D01*
X124001000Y-79992000D02*
X124001000Y-78764000D01*
X124001000Y-76684000D02*
X124001000Y-75456000D01*
X123961000Y-79971000D02*
X123961000Y-78764000D01*
X123961000Y-76684000D02*
X123961000Y-75477000D01*
X123921000Y-79948000D02*
X123921000Y-78764000D01*
X123921000Y-76684000D02*
X123921000Y-75500000D01*
X123881000Y-79924000D02*
X123881000Y-78764000D01*
X123881000Y-76684000D02*
X123881000Y-75524000D01*
X123841000Y-79899000D02*
X123841000Y-78764000D01*
X123841000Y-76684000D02*
X123841000Y-75549000D01*
X123801000Y-79873000D02*
X123801000Y-78764000D01*
X123801000Y-76684000D02*
X123801000Y-75575000D01*
X123761000Y-79846000D02*
X123761000Y-78764000D01*
X123761000Y-76684000D02*
X123761000Y-75602000D01*
X123721000Y-79819000D02*
X123721000Y-78764000D01*
X123721000Y-76684000D02*
X123721000Y-75629000D01*
X123681000Y-79789000D02*
X123681000Y-78764000D01*
X123681000Y-76684000D02*
X123681000Y-75659000D01*
X123641000Y-79759000D02*
X123641000Y-78764000D01*
X123641000Y-76684000D02*
X123641000Y-75689000D01*
X123601000Y-79728000D02*
X123601000Y-78764000D01*
X123601000Y-76684000D02*
X123601000Y-75720000D01*
X123561000Y-79695000D02*
X123561000Y-78764000D01*
X123561000Y-76684000D02*
X123561000Y-75753000D01*
X123521000Y-79661000D02*
X123521000Y-78764000D01*
X123521000Y-76684000D02*
X123521000Y-75787000D01*
X123481000Y-79625000D02*
X123481000Y-78764000D01*
X123481000Y-76684000D02*
X123481000Y-75823000D01*
X123441000Y-79588000D02*
X123441000Y-78764000D01*
X123441000Y-76684000D02*
X123441000Y-75860000D01*
X123401000Y-79550000D02*
X123401000Y-78764000D01*
X123401000Y-76684000D02*
X123401000Y-75898000D01*
X123361000Y-79509000D02*
X123361000Y-78764000D01*
X123361000Y-76684000D02*
X123361000Y-75939000D01*
X123321000Y-79467000D02*
X123321000Y-78764000D01*
X123321000Y-76684000D02*
X123321000Y-75981000D01*
X123281000Y-79423000D02*
X123281000Y-78764000D01*
X123281000Y-76684000D02*
X123281000Y-76025000D01*
X123241000Y-79377000D02*
X123241000Y-78764000D01*
X123241000Y-76684000D02*
X123241000Y-76071000D01*
X123201000Y-79329000D02*
X123201000Y-78764000D01*
X123201000Y-76684000D02*
X123201000Y-76119000D01*
X123161000Y-79278000D02*
X123161000Y-78764000D01*
X123161000Y-76684000D02*
X123161000Y-76170000D01*
X123121000Y-79224000D02*
X123121000Y-78764000D01*
X123121000Y-76684000D02*
X123121000Y-76224000D01*
X123081000Y-79167000D02*
X123081000Y-78764000D01*
X123081000Y-76684000D02*
X123081000Y-76281000D01*
X123041000Y-79107000D02*
X123041000Y-78764000D01*
X123041000Y-76684000D02*
X123041000Y-76341000D01*
X123001000Y-79043000D02*
X123001000Y-78764000D01*
X123001000Y-76684000D02*
X123001000Y-76405000D01*
X122961000Y-78975000D02*
X122961000Y-78764000D01*
X122961000Y-76684000D02*
X122961000Y-76473000D01*
X122921000Y-78902000D02*
X122921000Y-76546000D01*
X122881000Y-78822000D02*
X122881000Y-76626000D01*
X122841000Y-78735000D02*
X122841000Y-76713000D01*
X122801000Y-78639000D02*
X122801000Y-76809000D01*
X122761000Y-78529000D02*
X122761000Y-76919000D01*
X122721000Y-78401000D02*
X122721000Y-77047000D01*
X122681000Y-78242000D02*
X122681000Y-77206000D01*
X122641000Y-78008000D02*
X122641000Y-77440000D01*
X128046775Y-79199000D02*
X127546775Y-79199000D01*
X127796775Y-79449000D02*
X127796775Y-78949000D01*
%TO.C,C1*%
X121308000Y-71998000D02*
X121308000Y-68758000D01*
X123548000Y-71998000D02*
X123548000Y-68758000D01*
X121308000Y-71998000D02*
X121373000Y-71998000D01*
X123483000Y-71998000D02*
X123548000Y-71998000D01*
X121308000Y-68758000D02*
X121373000Y-68758000D01*
X123483000Y-68758000D02*
X123548000Y-68758000D01*
%TO.C,BZ1*%
X159272000Y-58928000D02*
G75*
G03*
X159272000Y-58928000I-6100000J0D01*
G01*
%TO.C,K1*%
D12*
X147054380Y-100814095D02*
X146054380Y-100814095D01*
X147054380Y-100242666D02*
X146482952Y-100671238D01*
X146054380Y-100242666D02*
X146625809Y-100814095D01*
X147054380Y-99290285D02*
X147054380Y-99861714D01*
X147054380Y-99576000D02*
X146054380Y-99576000D01*
X146197238Y-99671238D01*
X146292476Y-99766476D01*
X146340095Y-99861714D01*
%TO.C,U1*%
X138684095Y-66210380D02*
X138684095Y-67019904D01*
X138731714Y-67115142D01*
X138779333Y-67162761D01*
X138874571Y-67210380D01*
X139065047Y-67210380D01*
X139160285Y-67162761D01*
X139207904Y-67115142D01*
X139255523Y-67019904D01*
X139255523Y-66210380D01*
X140255523Y-67210380D02*
X139684095Y-67210380D01*
X139969809Y-67210380D02*
X139969809Y-66210380D01*
X139874571Y-66353238D01*
X139779333Y-66448476D01*
X139684095Y-66496095D01*
%TO.C,SW1*%
X154824666Y-97464761D02*
X154967523Y-97512380D01*
X155205619Y-97512380D01*
X155300857Y-97464761D01*
X155348476Y-97417142D01*
X155396095Y-97321904D01*
X155396095Y-97226666D01*
X155348476Y-97131428D01*
X155300857Y-97083809D01*
X155205619Y-97036190D01*
X155015142Y-96988571D01*
X154919904Y-96940952D01*
X154872285Y-96893333D01*
X154824666Y-96798095D01*
X154824666Y-96702857D01*
X154872285Y-96607619D01*
X154919904Y-96560000D01*
X155015142Y-96512380D01*
X155253238Y-96512380D01*
X155396095Y-96560000D01*
X155729428Y-96512380D02*
X155967523Y-97512380D01*
X156158000Y-96798095D01*
X156348476Y-97512380D01*
X156586571Y-96512380D01*
X157491333Y-97512380D02*
X156919904Y-97512380D01*
X157205619Y-97512380D02*
X157205619Y-96512380D01*
X157110380Y-96655238D01*
X157015142Y-96750476D01*
X156919904Y-96798095D01*
%TO.C,R5*%
X152995333Y-76032380D02*
X152662000Y-75556190D01*
X152423904Y-76032380D02*
X152423904Y-75032380D01*
X152804857Y-75032380D01*
X152900095Y-75080000D01*
X152947714Y-75127619D01*
X152995333Y-75222857D01*
X152995333Y-75365714D01*
X152947714Y-75460952D01*
X152900095Y-75508571D01*
X152804857Y-75556190D01*
X152423904Y-75556190D01*
X153900095Y-75032380D02*
X153423904Y-75032380D01*
X153376285Y-75508571D01*
X153423904Y-75460952D01*
X153519142Y-75413333D01*
X153757238Y-75413333D01*
X153852476Y-75460952D01*
X153900095Y-75508571D01*
X153947714Y-75603809D01*
X153947714Y-75841904D01*
X153900095Y-75937142D01*
X153852476Y-75984761D01*
X153757238Y-76032380D01*
X153519142Y-76032380D01*
X153423904Y-75984761D01*
X153376285Y-75937142D01*
%TO.C,R4*%
X152995333Y-72476380D02*
X152662000Y-72000190D01*
X152423904Y-72476380D02*
X152423904Y-71476380D01*
X152804857Y-71476380D01*
X152900095Y-71524000D01*
X152947714Y-71571619D01*
X152995333Y-71666857D01*
X152995333Y-71809714D01*
X152947714Y-71904952D01*
X152900095Y-71952571D01*
X152804857Y-72000190D01*
X152423904Y-72000190D01*
X153852476Y-71809714D02*
X153852476Y-72476380D01*
X153614380Y-71428761D02*
X153376285Y-72143047D01*
X153995333Y-72143047D01*
%TO.C,R3*%
X154519333Y-85400380D02*
X154186000Y-84924190D01*
X153947904Y-85400380D02*
X153947904Y-84400380D01*
X154328857Y-84400380D01*
X154424095Y-84448000D01*
X154471714Y-84495619D01*
X154519333Y-84590857D01*
X154519333Y-84733714D01*
X154471714Y-84828952D01*
X154424095Y-84876571D01*
X154328857Y-84924190D01*
X153947904Y-84924190D01*
X154852666Y-84400380D02*
X155471714Y-84400380D01*
X155138380Y-84781333D01*
X155281238Y-84781333D01*
X155376476Y-84828952D01*
X155424095Y-84876571D01*
X155471714Y-84971809D01*
X155471714Y-85209904D01*
X155424095Y-85305142D01*
X155376476Y-85352761D01*
X155281238Y-85400380D01*
X154995523Y-85400380D01*
X154900285Y-85352761D01*
X154852666Y-85305142D01*
%TO.C,R2*%
X153503333Y-81620380D02*
X153170000Y-81144190D01*
X152931904Y-81620380D02*
X152931904Y-80620380D01*
X153312857Y-80620380D01*
X153408095Y-80668000D01*
X153455714Y-80715619D01*
X153503333Y-80810857D01*
X153503333Y-80953714D01*
X153455714Y-81048952D01*
X153408095Y-81096571D01*
X153312857Y-81144190D01*
X152931904Y-81144190D01*
X153884285Y-80715619D02*
X153931904Y-80668000D01*
X154027142Y-80620380D01*
X154265238Y-80620380D01*
X154360476Y-80668000D01*
X154408095Y-80715619D01*
X154455714Y-80810857D01*
X154455714Y-80906095D01*
X154408095Y-81048952D01*
X153836666Y-81620380D01*
X154455714Y-81620380D01*
%TO.C,R1*%
X139279333Y-61524380D02*
X138946000Y-61048190D01*
X138707904Y-61524380D02*
X138707904Y-60524380D01*
X139088857Y-60524380D01*
X139184095Y-60572000D01*
X139231714Y-60619619D01*
X139279333Y-60714857D01*
X139279333Y-60857714D01*
X139231714Y-60952952D01*
X139184095Y-61000571D01*
X139088857Y-61048190D01*
X138707904Y-61048190D01*
X140231714Y-61524380D02*
X139660285Y-61524380D01*
X139946000Y-61524380D02*
X139946000Y-60524380D01*
X139850761Y-60667238D01*
X139755523Y-60762476D01*
X139660285Y-60810095D01*
%TO.C,Q1*%
X161247619Y-71977238D02*
X161200000Y-72072476D01*
X161104761Y-72167714D01*
X160961904Y-72310571D01*
X160914285Y-72405809D01*
X160914285Y-72501047D01*
X161152380Y-72453428D02*
X161104761Y-72548666D01*
X161009523Y-72643904D01*
X160819047Y-72691523D01*
X160485714Y-72691523D01*
X160295238Y-72643904D01*
X160200000Y-72548666D01*
X160152380Y-72453428D01*
X160152380Y-72262952D01*
X160200000Y-72167714D01*
X160295238Y-72072476D01*
X160485714Y-72024857D01*
X160819047Y-72024857D01*
X161009523Y-72072476D01*
X161104761Y-72167714D01*
X161152380Y-72262952D01*
X161152380Y-72453428D01*
X161152380Y-71072476D02*
X161152380Y-71643904D01*
X161152380Y-71358190D02*
X160152380Y-71358190D01*
X160295238Y-71453428D01*
X160390476Y-71548666D01*
X160438095Y-71643904D01*
%TO.C,K2*%
X171953904Y-95504380D02*
X171953904Y-94504380D01*
X172525333Y-95504380D02*
X172096761Y-94932952D01*
X172525333Y-94504380D02*
X171953904Y-95075809D01*
X172906285Y-94599619D02*
X172953904Y-94552000D01*
X173049142Y-94504380D01*
X173287238Y-94504380D01*
X173382476Y-94552000D01*
X173430095Y-94599619D01*
X173477714Y-94694857D01*
X173477714Y-94790095D01*
X173430095Y-94932952D01*
X172858666Y-95504380D01*
X173477714Y-95504380D01*
%TO.C,J2*%
X181022666Y-66088380D02*
X181022666Y-66802666D01*
X180975047Y-66945523D01*
X180879809Y-67040761D01*
X180736952Y-67088380D01*
X180641714Y-67088380D01*
X181451238Y-66183619D02*
X181498857Y-66136000D01*
X181594095Y-66088380D01*
X181832190Y-66088380D01*
X181927428Y-66136000D01*
X181975047Y-66183619D01*
X182022666Y-66278857D01*
X182022666Y-66374095D01*
X181975047Y-66516952D01*
X181403619Y-67088380D01*
X182022666Y-67088380D01*
%TO.C,J1*%
X129206666Y-65580380D02*
X129206666Y-66294666D01*
X129159047Y-66437523D01*
X129063809Y-66532761D01*
X128920952Y-66580380D01*
X128825714Y-66580380D01*
X130206666Y-66580380D02*
X129635238Y-66580380D01*
X129920952Y-66580380D02*
X129920952Y-65580380D01*
X129825714Y-65723238D01*
X129730476Y-65818476D01*
X129635238Y-65866095D01*
%TO.C,D2*%
X153947904Y-81644380D02*
X153947904Y-80644380D01*
X154186000Y-80644380D01*
X154328857Y-80692000D01*
X154424095Y-80787238D01*
X154471714Y-80882476D01*
X154519333Y-81072952D01*
X154519333Y-81215809D01*
X154471714Y-81406285D01*
X154424095Y-81501523D01*
X154328857Y-81596761D01*
X154186000Y-81644380D01*
X153947904Y-81644380D01*
X154900285Y-80739619D02*
X154947904Y-80692000D01*
X155043142Y-80644380D01*
X155281238Y-80644380D01*
X155376476Y-80692000D01*
X155424095Y-80739619D01*
X155471714Y-80834857D01*
X155471714Y-80930095D01*
X155424095Y-81072952D01*
X154852666Y-81644380D01*
X155471714Y-81644380D01*
X150614095Y-81964380D02*
X150614095Y-80964380D01*
X151185523Y-81964380D02*
X150756952Y-81392952D01*
X151185523Y-80964380D02*
X150614095Y-81535809D01*
%TO.C,D1*%
X172235904Y-105504380D02*
X172235904Y-104504380D01*
X172474000Y-104504380D01*
X172616857Y-104552000D01*
X172712095Y-104647238D01*
X172759714Y-104742476D01*
X172807333Y-104932952D01*
X172807333Y-105075809D01*
X172759714Y-105266285D01*
X172712095Y-105361523D01*
X172616857Y-105456761D01*
X172474000Y-105504380D01*
X172235904Y-105504380D01*
X173759714Y-105504380D02*
X173188285Y-105504380D01*
X173474000Y-105504380D02*
X173474000Y-104504380D01*
X173378761Y-104647238D01*
X173283523Y-104742476D01*
X173188285Y-104790095D01*
%TO.C,C3*%
X125615142Y-70544666D02*
X125662761Y-70592285D01*
X125710380Y-70735142D01*
X125710380Y-70830380D01*
X125662761Y-70973238D01*
X125567523Y-71068476D01*
X125472285Y-71116095D01*
X125281809Y-71163714D01*
X125138952Y-71163714D01*
X124948476Y-71116095D01*
X124853238Y-71068476D01*
X124758000Y-70973238D01*
X124710380Y-70830380D01*
X124710380Y-70735142D01*
X124758000Y-70592285D01*
X124805619Y-70544666D01*
X124710380Y-70211333D02*
X124710380Y-69592285D01*
X125091333Y-69925619D01*
X125091333Y-69782761D01*
X125138952Y-69687523D01*
X125186571Y-69639904D01*
X125281809Y-69592285D01*
X125519904Y-69592285D01*
X125615142Y-69639904D01*
X125662761Y-69687523D01*
X125710380Y-69782761D01*
X125710380Y-70068476D01*
X125662761Y-70163714D01*
X125615142Y-70211333D01*
%TO.C,C2*%
X125075333Y-81831142D02*
X125027714Y-81878761D01*
X124884857Y-81926380D01*
X124789619Y-81926380D01*
X124646761Y-81878761D01*
X124551523Y-81783523D01*
X124503904Y-81688285D01*
X124456285Y-81497809D01*
X124456285Y-81354952D01*
X124503904Y-81164476D01*
X124551523Y-81069238D01*
X124646761Y-80974000D01*
X124789619Y-80926380D01*
X124884857Y-80926380D01*
X125027714Y-80974000D01*
X125075333Y-81021619D01*
X125456285Y-81021619D02*
X125503904Y-80974000D01*
X125599142Y-80926380D01*
X125837238Y-80926380D01*
X125932476Y-80974000D01*
X125980095Y-81021619D01*
X126027714Y-81116857D01*
X126027714Y-81212095D01*
X125980095Y-81354952D01*
X125408666Y-81926380D01*
X126027714Y-81926380D01*
%TO.C,C1*%
X120535142Y-70544666D02*
X120582761Y-70592285D01*
X120630380Y-70735142D01*
X120630380Y-70830380D01*
X120582761Y-70973238D01*
X120487523Y-71068476D01*
X120392285Y-71116095D01*
X120201809Y-71163714D01*
X120058952Y-71163714D01*
X119868476Y-71116095D01*
X119773238Y-71068476D01*
X119678000Y-70973238D01*
X119630380Y-70830380D01*
X119630380Y-70735142D01*
X119678000Y-70592285D01*
X119725619Y-70544666D01*
X120630380Y-69592285D02*
X120630380Y-70163714D01*
X120630380Y-69878000D02*
X119630380Y-69878000D01*
X119773238Y-69973238D01*
X119868476Y-70068476D01*
X119916095Y-70163714D01*
%TO.C,BZ1*%
X152291047Y-66056571D02*
X152433904Y-66104190D01*
X152481523Y-66151809D01*
X152529142Y-66247047D01*
X152529142Y-66389904D01*
X152481523Y-66485142D01*
X152433904Y-66532761D01*
X152338666Y-66580380D01*
X151957714Y-66580380D01*
X151957714Y-65580380D01*
X152291047Y-65580380D01*
X152386285Y-65628000D01*
X152433904Y-65675619D01*
X152481523Y-65770857D01*
X152481523Y-65866095D01*
X152433904Y-65961333D01*
X152386285Y-66008952D01*
X152291047Y-66056571D01*
X151957714Y-66056571D01*
X152862476Y-65580380D02*
X153529142Y-65580380D01*
X152862476Y-66580380D01*
X153529142Y-66580380D01*
X154433904Y-66580380D02*
X153862476Y-66580380D01*
X154148190Y-66580380D02*
X154148190Y-65580380D01*
X154052952Y-65723238D01*
X153957714Y-65818476D01*
X153862476Y-65866095D01*
X156601047Y-61539428D02*
X157362952Y-61539428D01*
X156982000Y-61920380D02*
X156982000Y-61158476D01*
%TD*%
M02*
